<?xml version="1.0" encoding="UTF-8" standalone="no"?>
<!DOCTYPE svg PUBLIC "-//W3C//DTD SVG 1.1//EN" "http://www.w3.org/Graphics/SVG/1.1/DTD/svg11.dtd">
<svg xmlns="http://www.w3.org/2000/svg" version="1.1" viewBox="0 0 400 400">
<g stroke-width="2.00" fill="none" stroke-linecap="butt">
<path stroke="#99b6f3" vector-effect="non-scaling-stroke" d="
  M 300.53 219.63
  Q 304.80 182.35 284.64 151.09
  A 0.99 0.99 0.0 0 1 284.84 149.79
  L 286.51 148.37
  A 1.00 0.98 -16.7 0 0 286.86 147.74
  Q 287.35 143.87 290.93 141.42
  Q 299.89 135.29 305.87 131.82
  Q 309.67 129.61 310.68 127.21
  C 315.13 116.64 302.87 112.58 296.64 119.15
  Q 287.08 129.22 281.40 133.98
  C 279.98 135.17 278.45 135.23 276.78 134.76
  A 0.99 0.98 -55.9 0 0 275.92 134.93
  L 274.07 136.30
  A 1.00 0.99 48.7 0 1 272.76 136.21
  Q 246.73 109.87 209.67 105.76
  A 1.00 1.00 0.0 0 1 208.78 104.72
  Q 208.93 101.67 206.30 100.01
  A 1.00 1.00 0.0 0 1 205.83 99.20
  Q 205.53 90.53 207.09 82.06
  C 208.58 73.89 208.88 68.51 200.39 65.36
  A 0.99 0.98 45.4 0 0 199.71 65.35
  C 191.10 68.39 191.43 73.93 192.90 82.11
  Q 194.41 90.52 194.20 99.18
  A 0.99 0.98 75.2 0 1 193.72 100.01
  Q 191.10 101.60 191.21 104.58
  A 1.00 1.00 0.0 0 1 190.37 105.60
  Q 186.13 106.29 181.90 107.01
  C 160.87 110.56 141.87 120.93 126.94 136.13
  A 1.00 0.99 41.4 0 1 125.60 136.21
  Q 123.39 134.41 120.39 135.08
  A 1.03 1.00 -31.4 0 1 119.55 134.89
  Q 112.74 129.48 103.52 119.49
  C 96.68 112.08 83.68 117.88 89.79 128.33
  Q 91.06 130.52 93.29 131.72
  Q 102.54 136.74 110.95 143.05
  Q 112.91 144.52 112.90 147.66
  A 1.00 1.00 0.0 0 0 113.26 148.43
  L 114.89 149.78
  A 1.01 1.00 -54.1 0 1 115.09 151.09
  Q 95.14 182.45 99.61 219.71
  A 1.01 1.01 0.0 0 1 98.72 220.83
  Q 95.95 221.11 94.99 223.76
  A 1.00 0.97 -88.0 0 1 94.34 224.38
  Q 84.95 227.17 72.02 227.75
  C 60.79 228.26 58.51 243.77 71.18 243.77
  Q 74.26 243.76 75.46 243.24
  Q 84.30 239.41 93.57 236.86
  Q 97.16 235.87 100.06 238.02
  A 1.00 0.96 56.5 0 0 100.87 238.20
  L 102.76 237.77
  A 1.00 0.99 74.1 0 1 103.92 238.42
  Q 116.08 273.62 147.72 293.05
  A 1.00 0.98 25.3 0 1 148.15 294.22
  L 147.30 296.69
  A 1.03 1.02 -44.6 0 0 147.29 297.33
  C 149.25 303.22 141.65 312.76 138.29 317.33
  C 127.24 332.35 146.02 341.10 150.66 327.18
  C 153.44 318.86 155.39 311.62 159.17 305.66
  A 1.00 0.99 11.4 0 1 159.86 305.21
  Q 162.82 304.75 163.67 302.11
  A 1.00 0.99 -70.9 0 1 164.96 301.48
  C 188.90 310.25 211.54 309.36 235.25 301.69
  A 1.00 1.00 0.0 0 1 236.51 302.34
  Q 237.25 304.65 239.81 304.93
  A 1.00 0.99 72.1 0 1 240.46 305.27
  C 244.62 310.09 247.16 320.07 249.39 326.91
  C 253.97 340.93 272.62 332.31 261.82 317.42
  Q 256.38 309.92 252.17 301.56
  A 1.00 0.99 -50.7 0 1 252.10 300.83
  Q 253.08 297.45 252.09 294.21
  A 1.00 0.99 67.1 0 1 252.56 293.04
  C 273.26 281.72 288.89 260.17 296.31 238.20
  A 1.00 1.00 0.0 0 1 297.48 237.54
  L 299.31 237.95
  A 1.02 1.01 33.0 0 0 300.13 237.78
  C 309.16 231.05 328.81 251.81 336.18 240.06
  C 339.43 234.89 336.22 230.15 330.95 228.36
  Q 328.36 227.49 325.64 227.46
  Q 316.58 227.38 306.06 224.43
  Q 304.75 224.06 303.90 221.75
  A 0.99 0.99 0.0 0 0 303.17 221.12
  L 301.32 220.72
  A 1.01 1.00 9.2 0 1 300.53 219.63"
/>
<path stroke="#99b6f3" vector-effect="non-scaling-stroke" d="
  M 144.37 149.44
  Q 160.61 161.03 176.56 172.19
  Q 182.04 176.02 187.40 170.07
  A 1.01 1.00 67.7 0 0 187.65 169.46
  L 189.98 127.57
  A 1.01 1.00 87.4 0 0 188.84 126.52
  Q 163.13 130.20 144.26 147.90
  A 1.00 0.99 41.1 0 0 144.37 149.44"
/>
<path stroke="#99b6f3" vector-effect="non-scaling-stroke" d="
  M 255.39 147.93
  Q 236.60 130.43 211.16 126.54
  A 1.00 1.00 0.0 0 0 210.01 127.59
  L 212.35 169.58
  A 0.97 0.95 -70.0 0 0 212.64 170.22
  Q 218.05 175.76 223.48 171.96
  Q 239.03 161.09 255.29 149.48
  A 1.01 1.00 48.8 0 0 255.39 147.93"
/>
<path stroke="#99b6f3" vector-effect="non-scaling-stroke" d="
  M 161.31 191.44
  Q 146.63 178.22 131.90 165.06
  A 1.01 1.00 -54.1 0 0 130.36 165.31
  Q 119.41 184.37 119.07 206.50
  Q 119.01 210.10 119.53 213.59
  A 1.01 1.00 77.8 0 0 120.79 214.41
  Q 139.15 209.11 157.51 203.82
  C 161.52 202.67 163.93 201.07 163.92 196.76
  Q 163.91 193.77 161.31 191.44"
/>
<path stroke="#99b6f3" vector-effect="non-scaling-stroke" d="
  M 236.18 195.16
  C 235.67 197.51 236.75 201.93 239.74 202.82
  Q 259.48 208.65 279.50 214.24
  A 1.01 1.00 9.3 0 0 280.77 213.33
  Q 282.20 187.52 269.41 165.28
  A 1.00 1.00 0.0 0 0 267.87 165.04
  Q 253.75 177.81 239.42 190.53
  Q 236.66 192.98 236.18 195.16"
/>
<path stroke="#99b6f3" vector-effect="non-scaling-stroke" d="
  M 188.56 214.92
  A 1.08 1.08 0.0 0 0 189.13 215.66
  L 199.50 220.78
  A 1.08 1.08 0.0 0 0 200.46 220.78
  L 210.81 215.65
  A 1.08 1.08 0.0 0 0 211.38 214.92
  L 213.86 203.85
  A 1.08 1.08 0.0 0 0 213.65 202.95
  L 206.74 194.16
  A 1.08 1.08 0.0 0 0 205.90 193.75
  L 194.10 193.75
  A 1.08 1.08 0.0 0 0 193.26 194.16
  L 186.31 202.88
  A 1.08 1.08 0.0 0 0 186.10 203.78
  L 188.56 214.92"
/>
<path stroke="#99b6f3" vector-effect="non-scaling-stroke" d="
  M 170.97 238.91
  C 173.48 232.71 171.98 226.24 163.75 227.51
  Q 144.53 230.49 125.32 234.00
  A 1.00 1.00 0.0 0 0 124.57 235.35
  Q 134.07 259.27 155.27 273.62
  A 1.00 0.99 28.5 0 0 156.75 273.19
  Q 164.01 256.10 170.97 238.91"
/>
<path stroke="#99b6f3" vector-effect="non-scaling-stroke" d="
  M 255.09 230.29
  Q 246.82 229.02 238.57 227.70
  C 233.68 226.92 228.94 226.77 227.74 232.32
  Q 227.27 234.46 228.50 237.47
  Q 235.83 255.44 243.40 273.43
  A 1.00 1.00 0.0 0 0 244.88 273.87
  Q 266.17 259.41 275.61 235.39
  A 1.00 1.00 0.0 0 0 274.90 234.05
  Q 265.01 231.82 255.09 230.29"
/>
<path stroke="#99b6f3" vector-effect="non-scaling-stroke" d="
  M 205.08 245.81
  C 199.89 241.84 196.34 243.33 193.38 248.58
  Q 184.05 265.18 175.02 281.97
  A 1.00 1.00 0.0 0 0 175.60 283.40
  Q 200.13 291.04 224.70 283.47
  A 1.01 1.00 -23.2 0 0 225.28 282.03
  L 205.35 246.12
  Q 205.25 245.94 205.08 245.81"
/>
</g>
<path fill="#326de6" d="
  M 228.89 29.19
  C 264.85 47.10 301.54 63.80 337.75 81.26
  C 347.10 85.78 352.32 90.28 354.62 100.22
  Q 370.28 168.12 385.95 236.04
  C 388.63 247.67 387.13 253.93 380.05 262.74
  Q 336.72 316.70 293.27 370.57
  C 287.39 377.86 281.39 381.84 272.17 381.87
  Q 154.99 382.31 126.31 381.95
  C 118.10 381.85 111.97 376.98 106.51 370.22
  Q 65.94 320.07 25.60 269.72
  C 14.61 256.00 10.40 251.78 14.27 235.06
  Q 29.50 169.38 44.51 103.66
  C 47.10 92.34 50.61 86.84 60.70 82.00
  Q 124.80 51.27 189.00 20.75
  Q 198.66 16.16 208.51 19.74
  Q 213.65 21.61 228.89 29.19
  Z
  M 300.53 219.63
  Q 304.80 182.35 284.64 151.09
  A 0.99 0.99 0.0 0 1 284.84 149.79
  L 286.51 148.37
  A 1.00 0.98 -16.7 0 0 286.86 147.74
  Q 287.35 143.87 290.93 141.42
  Q 299.89 135.29 305.87 131.82
  Q 309.67 129.61 310.68 127.21
  C 315.13 116.64 302.87 112.58 296.64 119.15
  Q 287.08 129.22 281.40 133.98
  C 279.98 135.17 278.45 135.23 276.78 134.76
  A 0.99 0.98 -55.9 0 0 275.92 134.93
  L 274.07 136.30
  A 1.00 0.99 48.7 0 1 272.76 136.21
  Q 246.73 109.87 209.67 105.76
  A 1.00 1.00 0.0 0 1 208.78 104.72
  Q 208.93 101.67 206.30 100.01
  A 1.00 1.00 0.0 0 1 205.83 99.20
  Q 205.53 90.53 207.09 82.06
  C 208.58 73.89 208.88 68.51 200.39 65.36
  A 0.99 0.98 45.4 0 0 199.71 65.35
  C 191.10 68.39 191.43 73.93 192.90 82.11
  Q 194.41 90.52 194.20 99.18
  A 0.99 0.98 75.2 0 1 193.72 100.01
  Q 191.10 101.60 191.21 104.58
  A 1.00 1.00 0.0 0 1 190.37 105.60
  Q 186.13 106.29 181.90 107.01
  C 160.87 110.56 141.87 120.93 126.94 136.13
  A 1.00 0.99 41.4 0 1 125.60 136.21
  Q 123.39 134.41 120.39 135.08
  A 1.03 1.00 -31.4 0 1 119.55 134.89
  Q 112.74 129.48 103.52 119.49
  C 96.68 112.08 83.68 117.88 89.79 128.33
  Q 91.06 130.52 93.29 131.72
  Q 102.54 136.74 110.95 143.05
  Q 112.91 144.52 112.90 147.66
  A 1.00 1.00 0.0 0 0 113.26 148.43
  L 114.89 149.78
  A 1.01 1.00 -54.1 0 1 115.09 151.09
  Q 95.14 182.45 99.61 219.71
  A 1.01 1.01 0.0 0 1 98.72 220.83
  Q 95.95 221.11 94.99 223.76
  A 1.00 0.97 -88.0 0 1 94.34 224.38
  Q 84.95 227.17 72.02 227.75
  C 60.79 228.26 58.51 243.77 71.18 243.77
  Q 74.26 243.76 75.46 243.24
  Q 84.30 239.41 93.57 236.86
  Q 97.16 235.87 100.06 238.02
  A 1.00 0.96 56.5 0 0 100.87 238.20
  L 102.76 237.77
  A 1.00 0.99 74.1 0 1 103.92 238.42
  Q 116.08 273.62 147.72 293.05
  A 1.00 0.98 25.3 0 1 148.15 294.22
  L 147.30 296.69
  A 1.03 1.02 -44.6 0 0 147.29 297.33
  C 149.25 303.22 141.65 312.76 138.29 317.33
  C 127.24 332.35 146.02 341.10 150.66 327.18
  C 153.44 318.86 155.39 311.62 159.17 305.66
  A 1.00 0.99 11.4 0 1 159.86 305.21
  Q 162.82 304.75 163.67 302.11
  A 1.00 0.99 -70.9 0 1 164.96 301.48
  C 188.90 310.25 211.54 309.36 235.25 301.69
  A 1.00 1.00 0.0 0 1 236.51 302.34
  Q 237.25 304.65 239.81 304.93
  A 1.00 0.99 72.1 0 1 240.46 305.27
  C 244.62 310.09 247.16 320.07 249.39 326.91
  C 253.97 340.93 272.62 332.31 261.82 317.42
  Q 256.38 309.92 252.17 301.56
  A 1.00 0.99 -50.7 0 1 252.10 300.83
  Q 253.08 297.45 252.09 294.21
  A 1.00 0.99 67.1 0 1 252.56 293.04
  C 273.26 281.72 288.89 260.17 296.31 238.20
  A 1.00 1.00 0.0 0 1 297.48 237.54
  L 299.31 237.95
  A 1.02 1.01 33.0 0 0 300.13 237.78
  C 309.16 231.05 328.81 251.81 336.18 240.06
  C 339.43 234.89 336.22 230.15 330.95 228.36
  Q 328.36 227.49 325.64 227.46
  Q 316.58 227.38 306.06 224.43
  Q 304.75 224.06 303.90 221.75
  A 0.99 0.99 0.0 0 0 303.17 221.12
  L 301.32 220.72
  A 1.01 1.00 9.2 0 1 300.53 219.63
  Z"
/>
<path fill="#ffffff" d="
  M 301.32 220.72
  L 303.17 221.12
  A 0.99 0.99 0.0 0 1 303.90 221.75
  Q 304.75 224.06 306.06 224.43
  Q 316.58 227.38 325.64 227.46
  Q 328.36 227.49 330.95 228.36
  C 336.22 230.15 339.43 234.89 336.18 240.06
  C 328.81 251.81 309.16 231.05 300.13 237.78
  A 1.02 1.01 33.0 0 1 299.31 237.95
  L 297.48 237.54
  A 1.00 1.00 0.0 0 0 296.31 238.20
  C 288.89 260.17 273.26 281.72 252.56 293.04
  A 1.00 0.99 67.1 0 0 252.09 294.21
  Q 253.08 297.45 252.10 300.83
  A 1.00 0.99 -50.7 0 0 252.17 301.56
  Q 256.38 309.92 261.82 317.42
  C 272.62 332.31 253.97 340.93 249.39 326.91
  C 247.16 320.07 244.62 310.09 240.46 305.27
  A 1.00 0.99 72.1 0 0 239.81 304.93
  Q 237.25 304.65 236.51 302.34
  A 1.00 1.00 0.0 0 0 235.25 301.69
  C 211.54 309.36 188.90 310.25 164.96 301.48
  A 1.00 0.99 -70.9 0 0 163.67 302.11
  Q 162.82 304.75 159.86 305.21
  A 1.00 0.99 11.4 0 0 159.17 305.66
  C 155.39 311.62 153.44 318.86 150.66 327.18
  C 146.02 341.10 127.24 332.35 138.29 317.33
  C 141.65 312.76 149.25 303.22 147.29 297.33
  A 1.03 1.02 -44.6 0 1 147.30 296.69
  L 148.15 294.22
  A 1.00 0.98 25.3 0 0 147.72 293.05
  Q 116.08 273.62 103.92 238.42
  A 1.00 0.99 74.1 0 0 102.76 237.77
  L 100.87 238.20
  A 1.00 0.96 56.5 0 1 100.06 238.02
  Q 97.16 235.87 93.57 236.86
  Q 84.30 239.41 75.46 243.24
  Q 74.26 243.76 71.18 243.77
  C 58.51 243.77 60.79 228.26 72.02 227.75
  Q 84.95 227.17 94.34 224.38
  A 1.00 0.97 -88.0 0 0 94.99 223.76
  Q 95.95 221.11 98.72 220.83
  A 1.01 1.01 0.0 0 0 99.61 219.71
  Q 95.14 182.45 115.09 151.09
  A 1.01 1.00 -54.1 0 0 114.89 149.78
  L 113.26 148.43
  A 1.00 1.00 0.0 0 1 112.90 147.66
  Q 112.91 144.52 110.95 143.05
  Q 102.54 136.74 93.29 131.72
  Q 91.06 130.52 89.79 128.33
  C 83.68 117.88 96.68 112.08 103.52 119.49
  Q 112.74 129.48 119.55 134.89
  A 1.03 1.00 -31.4 0 0 120.39 135.08
  Q 123.39 134.41 125.60 136.21
  A 1.00 0.99 41.4 0 0 126.94 136.13
  C 141.87 120.93 160.87 110.56 181.90 107.01
  Q 186.13 106.29 190.37 105.60
  A 1.00 1.00 0.0 0 0 191.21 104.58
  Q 191.10 101.60 193.72 100.01
  A 0.99 0.98 75.2 0 0 194.20 99.18
  Q 194.41 90.52 192.90 82.11
  C 191.43 73.93 191.10 68.39 199.71 65.35
  A 0.99 0.98 45.4 0 1 200.39 65.36
  C 208.88 68.51 208.58 73.89 207.09 82.06
  Q 205.53 90.53 205.83 99.20
  A 1.00 1.00 0.0 0 0 206.30 100.01
  Q 208.93 101.67 208.78 104.72
  A 1.00 1.00 0.0 0 0 209.67 105.76
  Q 246.73 109.87 272.76 136.21
  A 1.00 0.99 48.7 0 0 274.07 136.30
  L 275.92 134.93
  A 0.99 0.98 -55.9 0 1 276.78 134.76
  C 278.45 135.23 279.98 135.17 281.40 133.98
  Q 287.08 129.22 296.64 119.15
  C 302.87 112.58 315.13 116.64 310.68 127.21
  Q 309.67 129.61 305.87 131.82
  Q 299.89 135.29 290.93 141.42
  Q 287.35 143.87 286.86 147.74
  A 1.00 0.98 -16.7 0 1 286.51 148.37
  L 284.84 149.79
  A 0.99 0.99 0.0 0 0 284.64 151.09
  Q 304.80 182.35 300.53 219.63
  A 1.01 1.00 9.2 0 0 301.32 220.72
  Z
  M 144.37 149.44
  Q 160.61 161.03 176.56 172.19
  Q 182.04 176.02 187.40 170.07
  A 1.01 1.00 67.7 0 0 187.65 169.46
  L 189.98 127.57
  A 1.01 1.00 87.4 0 0 188.84 126.52
  Q 163.13 130.20 144.26 147.90
  A 1.00 0.99 41.1 0 0 144.37 149.44
  Z
  M 255.39 147.93
  Q 236.60 130.43 211.16 126.54
  A 1.00 1.00 0.0 0 0 210.01 127.59
  L 212.35 169.58
  A 0.97 0.95 -70.0 0 0 212.64 170.22
  Q 218.05 175.76 223.48 171.96
  Q 239.03 161.09 255.29 149.48
  A 1.01 1.00 48.8 0 0 255.39 147.93
  Z
  M 161.31 191.44
  Q 146.63 178.22 131.90 165.06
  A 1.01 1.00 -54.1 0 0 130.36 165.31
  Q 119.41 184.37 119.07 206.50
  Q 119.01 210.10 119.53 213.59
  A 1.01 1.00 77.8 0 0 120.79 214.41
  Q 139.15 209.11 157.51 203.82
  C 161.52 202.67 163.93 201.07 163.92 196.76
  Q 163.91 193.77 161.31 191.44
  Z
  M 236.18 195.16
  C 235.67 197.51 236.75 201.93 239.74 202.82
  Q 259.48 208.65 279.50 214.24
  A 1.01 1.00 9.3 0 0 280.77 213.33
  Q 282.20 187.52 269.41 165.28
  A 1.00 1.00 0.0 0 0 267.87 165.04
  Q 253.75 177.81 239.42 190.53
  Q 236.66 192.98 236.18 195.16
  Z
  M 188.56 214.92
  A 1.08 1.08 0.0 0 0 189.13 215.66
  L 199.50 220.78
  A 1.08 1.08 0.0 0 0 200.46 220.78
  L 210.81 215.65
  A 1.08 1.08 0.0 0 0 211.38 214.92
  L 213.86 203.85
  A 1.08 1.08 0.0 0 0 213.65 202.95
  L 206.74 194.16
  A 1.08 1.08 0.0 0 0 205.90 193.75
  L 194.10 193.75
  A 1.08 1.08 0.0 0 0 193.26 194.16
  L 186.31 202.88
  A 1.08 1.08 0.0 0 0 186.10 203.78
  L 188.56 214.92
  Z
  M 170.97 238.91
  C 173.48 232.71 171.98 226.24 163.75 227.51
  Q 144.53 230.49 125.32 234.00
  A 1.00 1.00 0.0 0 0 124.57 235.35
  Q 134.07 259.27 155.27 273.62
  A 1.00 0.99 28.5 0 0 156.75 273.19
  Q 164.01 256.10 170.97 238.91
  Z
  M 255.09 230.29
  Q 246.82 229.02 238.57 227.70
  C 233.68 226.92 228.94 226.77 227.74 232.32
  Q 227.27 234.46 228.50 237.47
  Q 235.83 255.44 243.40 273.43
  A 1.00 1.00 0.0 0 0 244.88 273.87
  Q 266.17 259.41 275.61 235.39
  A 1.00 1.00 0.0 0 0 274.90 234.05
  Q 265.01 231.82 255.09 230.29
  Z
  M 205.08 245.81
  C 199.89 241.84 196.34 243.33 193.38 248.58
  Q 184.05 265.18 175.02 281.97
  A 1.00 1.00 0.0 0 0 175.60 283.40
  Q 200.13 291.04 224.70 283.47
  A 1.01 1.00 -23.2 0 0 225.28 282.03
  L 205.35 246.12
  Q 205.25 245.94 205.08 245.81
  Z"
/>
<path fill="#326de6" d="
  M 144.37 149.44
  A 1.00 0.99 41.1 0 1 144.26 147.90
  Q 163.13 130.20 188.84 126.52
  A 1.01 1.00 87.4 0 1 189.98 127.57
  L 187.65 169.46
  A 1.01 1.00 67.7 0 1 187.40 170.07
  Q 182.04 176.02 176.56 172.19
  Q 160.61 161.03 144.37 149.44
  Z"
/>
<path fill="#326de6" d="
  M 255.39 147.93
  A 1.01 1.00 48.8 0 1 255.29 149.48
  Q 239.03 161.09 223.48 171.96
  Q 218.05 175.76 212.64 170.22
  A 0.97 0.95 -70.0 0 1 212.35 169.58
  L 210.01 127.59
  A 1.00 1.00 0.0 0 1 211.16 126.54
  Q 236.60 130.43 255.39 147.93
  Z"
/>
<path fill="#326de6" d="
  M 161.31 191.44
  Q 163.91 193.77 163.92 196.76
  C 163.93 201.07 161.52 202.67 157.51 203.82
  Q 139.15 209.11 120.79 214.41
  A 1.01 1.00 77.8 0 1 119.53 213.59
  Q 119.01 210.10 119.07 206.50
  Q 119.41 184.37 130.36 165.31
  A 1.01 1.00 -54.1 0 1 131.90 165.06
  Q 146.63 178.22 161.31 191.44
  Z"
/>
<path fill="#326de6" d="
  M 239.74 202.82
  C 236.75 201.93 235.67 197.51 236.18 195.16
  Q 236.66 192.98 239.42 190.53
  Q 253.75 177.81 267.87 165.04
  A 1.00 1.00 0.0 0 1 269.41 165.28
  Q 282.20 187.52 280.77 213.33
  A 1.01 1.00 9.3 0 1 279.50 214.24
  Q 259.48 208.65 239.74 202.82
  Z"
/>
<path fill="#326de6" d="
  M 188.56 214.92
  L 186.10 203.78
  A 1.08 1.08 0.0 0 1 186.31 202.88
  L 193.26 194.16
  A 1.08 1.08 0.0 0 1 194.10 193.75
  L 205.90 193.75
  A 1.08 1.08 0.0 0 1 206.74 194.16
  L 213.65 202.95
  A 1.08 1.08 0.0 0 1 213.86 203.85
  L 211.38 214.92
  A 1.08 1.08 0.0 0 1 210.81 215.65
  L 200.46 220.78
  A 1.08 1.08 0.0 0 1 199.50 220.78
  L 189.13 215.66
  A 1.08 1.08 0.0 0 1 188.56 214.92
  Z"
/>
<path fill="#326de6" d="
  M 163.75 227.51
  C 171.98 226.24 173.48 232.71 170.97 238.91
  Q 164.01 256.10 156.75 273.19
  A 1.00 0.99 28.5 0 1 155.27 273.62
  Q 134.07 259.27 124.57 235.35
  A 1.00 1.00 0.0 0 1 125.32 234.00
  Q 144.53 230.49 163.75 227.51
  Z"
/>
<path fill="#326de6" d="
  M 255.09 230.29
  Q 265.01 231.82 274.90 234.05
  A 1.00 1.00 0.0 0 1 275.61 235.39
  Q 266.17 259.41 244.88 273.87
  A 1.00 1.00 0.0 0 1 243.40 273.43
  Q 235.83 255.44 228.50 237.47
  Q 227.27 234.46 227.74 232.32
  C 228.94 226.77 233.68 226.92 238.57 227.70
  Q 246.82 229.02 255.09 230.29
  Z"
/>
<path fill="#326de6" d="
  M 205.08 245.81
  Q 205.25 245.94 205.35 246.12
  L 225.28 282.03
  A 1.01 1.00 -23.2 0 1 224.70 283.47
  Q 200.13 291.04 175.60 283.40
  A 1.00 1.00 0.0 0 1 175.02 281.97
  Q 184.05 265.18 193.38 248.58
  C 196.34 243.33 199.89 241.84 205.08 245.81
  Z"
/>
</svg>
