<?xml version="1.0" encoding="UTF-8" standalone="no"?>
<!DOCTYPE svg PUBLIC "-//W3C//DTD SVG 1.1//EN" "http://www.w3.org/Graphics/SVG/1.1/DTD/svg11.dtd">
<svg xmlns="http://www.w3.org/2000/svg" version="1.1" viewBox="0 0 225 225">
<g stroke-width="2.00" fill="none" stroke-linecap="butt">
<path stroke="#98cba6" vector-effect="non-scaling-stroke" d="
  M 13.81 0.00
  Q 2.05 1.96 0.00 13.69"
/>
<path stroke="#98cba6" vector-effect="non-scaling-stroke" d="
  M 211.31 0.00
  Q 222.89 2.03 225.00 13.56"
/>
<path stroke="#98cba6" vector-effect="non-scaling-stroke" d="
  M 225.00 211.56
  Q 222.74 223.25 210.94 225.00"
/>
<path stroke="#98cba6" vector-effect="non-scaling-stroke" d="
  M 13.44 225.00
  Q 1.91 222.77 0.00 211.19"
/>
<path stroke="#98cba6" vector-effect="non-scaling-stroke" d="
  M 81.30 37.35
  L 66.79 62.75"
/>
<path stroke="#249444" vector-effect="non-scaling-stroke" d="
  M 66.79 62.75
  Q 65.61 62.20 64.93 63.44
  Q 58.45 75.19 51.94 86.94
  Q 51.00 88.63 50.40 91.33
  A 1.44 1.25 -56.6 0 0 50.52 92.24
  L 80.31 146.44
  A 1.63 1.18 78.8 0 0 81.05 147.13
  Q 81.83 147.40 82.26 147.17"
/>
<path stroke="#98cba6" vector-effect="non-scaling-stroke" d="
  M 82.26 147.17
  L 145.43 147.01
  A 1.14 1.12 14.3 0 0 146.42 146.43
  L 178.39 88.41
  A 0.30 0.27 12.7 0 0 178.10 88.01
  Q 143.12 87.98 109.31 88.03
  C 95.92 88.05 89.86 105.23 104.84 109.90
  Q 107.53 110.74 114.76 110.74
  Q 127.84 110.74 140.97 110.79
  A 0.33 0.33 15.0 0 1 141.26 111.29
  L 132.68 126.38
  A 1.41 1.23 13.1 0 1 131.51 127.00
  Q 114.37 127.00 97.25 127.00
  Q 96.43 127.00 96.25 126.04"
/>
<path stroke="#219041" vector-effect="non-scaling-stroke" d="
  M 96.25 126.04
  L 97.25 125.65
  A 0.42 0.38 58.8 0 0 97.37 125.03
  Q 95.59 122.80 94.22 120.29
  Q 86.95 107.02 79.15 93.90
  A 2.40 2.25 45.3 0 1 79.09 91.59
  L 96.08 61.40
  A 1.08 0.44 -6.3 0 1 96.78 61.02
  Q 97.63 60.82 96.32 59.50"
/>
<path stroke="#98cba6" vector-effect="non-scaling-stroke" d="
  M 96.32 59.50
  Q 115.40 60.31 133.44 60.02
  A 1.07 0.72 67.6 0 1 134.21 60.53
  L 145.37 78.15
  A 1.02 0.86 -13.6 0 0 146.19 78.56
  L 171.92 78.22"
/>
<path stroke="#219041" vector-effect="non-scaling-stroke" d="
  M 171.92 78.22
  C 174.09 77.79 171.55 75.95 171.17 75.32
  Q 160.57 57.19 148.11 37.89
  Q 147.06 36.26 145.12 36.26
  Q 115.05 36.21 83.44 36.36
  Q 81.00 36.37 81.30 37.35"
/>
<path stroke="#89c59a" vector-effect="non-scaling-stroke" d="
  M 171.92 78.22
  L 147.08 37.86
  A 0.92 0.88 -15.3 0 0 146.31 37.44
  L 81.30 37.35"
/>
<path stroke="#89c59a" vector-effect="non-scaling-stroke" d="
  M 96.32 59.50
  Q 86.34 75.47 77.48 92.06
  A 0.93 0.91 44.3 0 0 77.50 92.94
  L 96.25 126.04"
/>
<path stroke="#8cc99e" vector-effect="non-scaling-stroke" d="
  M 82.26 147.17
  L 51.28 91.41
  A 0.92 0.92 -90.0 0 1 51.28 90.53
  L 66.79 62.75"
/>
<path stroke="#98cba6" vector-effect="non-scaling-stroke" d="
  M 134.29 165.75
  Q 134.37 163.71 132.96 162.25"
/>
<path stroke="#1e8e3d" vector-effect="non-scaling-stroke" d="
  M 132.96 162.25
  C 131.11 158.86 127.28 160.73 125.51 163.09
  A 1.77 1.53 67.4 0 0 125.21 164.00
  Q 124.84 178.17 125.03 192.33
  C 125.15 201.66 133.44 201.47 138.15 195.63
  Q 145.45 186.58 153.03 177.76
  Q 153.72 176.96 153.79 178.01
  Q 154.33 185.79 154.26 193.82
  C 154.19 201.58 164.30 201.46 164.48 193.89
  Q 164.74 182.95 164.50 172.05
  C 164.41 167.89 166.32 163.54 161.27 160.90
  C 158.57 159.48 154.93 160.78 152.93 162.67
  Q 150.92 164.58 141.80 176.12
  C 139.95 178.46 138.89 180.05 136.17 182.06
  Q 135.69 182.41 135.68 181.75
  L 135.30 166.06
  A 1.16 0.52 -84.7 0 0 135.01 165.22
  Q 134.51 164.86 134.29 165.75"
/>
<path stroke="#85c397" vector-effect="non-scaling-stroke" d="
  M 132.96 162.25
  C 128.27 159.53 126.03 162.52 126.01 167.00
  Q 125.97 181.08 126.03 194.98
  Q 126.04 197.56 128.54 198.21
  C 132.52 199.23 134.90 197.90 137.54 194.73
  Q 146.31 184.19 154.73 173.83
  Q 155.34 173.08 155.34 174.00
  L 155.27 195.25
  A 1.81 1.15 -73.0 0 0 155.54 196.22
  Q 158.85 200.81 162.84 196.85
  A 4.12 2.64 76.1 0 0 163.74 194.20
  Q 163.77 180.30 163.73 167.24
  C 163.70 158.75 156.02 160.42 152.16 165.06
  Q 143.40 175.56 135.06 185.87
  Q 134.13 187.02 134.14 185.51
  L 134.29 165.75"
/>
<path stroke="#219041" vector-effect="non-scaling-stroke" d="
  M 26.21 197.50
  Q 29.46 201.60 33.55 198.55
  Q 35.78 196.89 35.72 194.57
  Q 35.54 187.34 35.47 178.76
  C 35.46 177.22 36.82 177.32 37.61 178.32
  Q 43.90 186.26 50.45 193.98
  C 52.13 195.97 53.63 198.08 55.98 199.02
  C 60.28 200.75 64.44 198.62 64.48 193.82
  Q 64.53 188.03 64.49 182.24
  Q 64.48 181.79 64.73 181.31
  C 65.73 179.34 64.74 177.29 64.74 175.81
  C 64.75 171.16 66.26 164.45 62.03 161.32
  C 58.73 158.89 54.80 161.89 54.78 165.50
  Q 54.74 173.72 54.41 181.93
  Q 54.32 184.19 52.81 182.43
  Q 49.14 178.15 45.87 173.54
  C 44.95 172.25 43.56 171.42 42.61 170.05
  C 39.11 164.99 33.02 155.59 26.00 163.12
  A 1.39 0.53 -40.1 0 0 25.55 163.93
  L 25.27 194.50
  Q 25.25 196.29 26.21 197.50"
/>
<path stroke="#98cba6" vector-effect="non-scaling-stroke" d="
  M 77.54 198.00
  L 78.25 198.54"
/>
<path stroke="#1d8437" vector-effect="non-scaling-stroke" d="
  M 78.25 198.54
  C 78.67 199.73 96.42 199.25 98.76 199.24
  A 1.43 1.43 -73.9 0 0 99.97 198.57
  Q 105.48 189.62 109.81 179.32"
/>
<path stroke="#98cba6" vector-effect="non-scaling-stroke" d="
  M 109.81 179.32
  Q 105.60 178.04 101.75 178.46"
/>
<path stroke="#1d8437" vector-effect="non-scaling-stroke" d="
  M 101.75 178.46
  Q 102.70 178.27 102.50 177.62
  A 0.74 0.63 -11.1 0 0 101.75 177.20
  Q 94.41 177.91 87.07 177.57
  Q 84.43 177.44 82.82 179.85
  Q 80.47 183.34 84.03 185.77
  A 0.88 0.01 34.5 0 0 84.75 186.25
  L 94.99 186.25
  A 1.21 0.94 7.3 0 1 96.24 187.51
  Q 95.52 189.52 94.11 190.82
  A 1.31 0.18 1.2 0 1 93.01 190.95
  L 83.50 190.90
  A 1.87 1.57 -11.6 0 1 81.95 190.06
  L 76.77 180.52
  A 1.11 0.95 48.9 0 1 76.76 179.47
  L 82.71 169.75
  A 1.32 0.57 -4.4 0 1 83.57 169.30
  L 88.25 168.29"
/>
<path stroke="#98cba6" vector-effect="non-scaling-stroke" d="
  M 88.25 168.29
  L 94.43 168.23
  A 0.93 0.51 66.0 0 1 95.05 168.70
  L 98.84 174.88
  A 1.10 0.69 -12.3 0 0 99.76 175.21
  L 107.30 174.66"
/>
<path stroke="#219041" vector-effect="non-scaling-stroke" d="
  M 107.30 174.66
  C 107.75 172.77 101.95 164.14 100.73 162.02
  Q 99.77 160.36 97.76 160.36
  L 78.74 160.45
  Q 76.87 160.46 75.94 162.19
  L 66.74 179.22
  A 1.09 0.90 -48.2 0 0 66.70 180.18
  C 67.85 182.28 76.18 198.41 77.54 198.00"
/>
<path stroke="#89c59a" vector-effect="non-scaling-stroke" d="
  M 107.30 174.66
  L 99.66 162.07
  A 1.36 1.34 -15.2 0 0 98.50 161.42
  L 78.49 161.53
  A 1.94 1.93 -76.2 0 0 76.80 162.56
  L 67.82 179.29
  A 1.06 0.83 -48.6 0 0 67.77 180.20
  L 77.54 198.00"
/>
<path stroke="#84b891" vector-effect="non-scaling-stroke" d="
  M 88.25 168.29
  L 82.67 168.37
  A 1.04 0.78 -71.6 0 0 81.89 168.91
  L 76.08 179.29
  A 1.11 0.89 -48.3 0 0 76.03 180.26
  L 82.04 191.20
  A 0.92 0.61 70.9 0 0 82.68 191.69
  L 93.75 191.74
  A 1.41 0.67 6.2 0 0 94.86 191.35
  L 98.03 186.30
  Q 98.45 185.62 97.64 185.64
  Q 88.22 185.92 86.26 185.73
  C 80.66 185.18 82.25 178.54 86.31 178.53
  Q 94.03 178.51 101.75 178.46"
/>
<path stroke="#84b891" vector-effect="non-scaling-stroke" d="
  M 109.81 179.32
  Q 104.06 188.59 99.68 197.71
  A 1.44 1.40 12.3 0 1 98.39 198.51
  L 78.25 198.54"
/>
<path stroke="#98cba6" vector-effect="non-scaling-stroke" d="
  M 168.20 191.84
  C 166.48 197.01 171.17 201.07 175.37 196.90
  Q 180.69 191.59 185.41 186.41
  A 1.02 0.96 43.6 0 1 186.83 186.42
  L 198.77 198.23
  A 2.08 2.03 -33.8 0 0 201.03 198.65
  C 207.13 196.03 204.16 192.24 200.94 189.06
  Q 196.60 184.78 192.28 180.34
  A 0.50 0.50 45.6 0 1 192.29 179.63
  Q 197.84 174.14 203.23 168.46
  C 206.92 164.58 201.96 158.23 197.08 163.11
  Q 191.96 168.23 186.56 173.51
  A 0.55 0.53 -46.6 0 1 185.83 173.54
  Q 180.08 168.54 175.20 162.45"
/>
<path stroke="#219041" vector-effect="non-scaling-stroke" d="
  M 175.20 162.45
  Q 172.38 158.30 168.29 162.07
  Q 164.70 165.39 167.83 168.63
  Q 172.75 173.72 177.40 178.37
  Q 179.17 180.14 177.24 181.73
  Q 171.92 186.10 168.20 191.84"
/>
<path stroke="#89c59a" vector-effect="non-scaling-stroke" d="
  M 175.20 162.45
  Q 166.08 160.01 168.47 166.65
  Q 169.28 168.89 171.77 171.37
  Q 175.86 175.47 179.95 179.64
  A 0.52 0.49 45.8 0 1 179.96 180.35
  L 168.20 191.84"
/>
<path stroke="#98cba6" vector-effect="non-scaling-stroke" d="
  M 118.33 161.69
  C 111.39 159.26 113.27 170.76 113.17 174.14
  A 0.81 0.42 -88.4 0 0 113.57 174.97
  L 119.75 174.99
  A 0.74 0.49 -89.6 0 0 120.25 174.25
  L 120.23 164.26
  Q 120.23 162.36 118.33 161.69"
/>
<path stroke="#98cba6" vector-effect="non-scaling-stroke" d="
  M 113.82 178.57
  A 0.68 0.56 -89.6 0 0 113.25 179.25
  L 113.25 195.75
  A 1.52 0.67 -80.4 0 0 113.50 196.74
  Q 116.88 200.64 120.06 196.54
  A 1.51 0.42 85.3 0 0 120.26 195.50
  L 120.25 179.50
  A 0.79 0.52 -89.3 0 0 119.75 178.72
  L 113.82 178.57"
/>
<path stroke="#89c59a" vector-effect="non-scaling-stroke" d="
  M 35.43 173.80
  Q 43.02 183.76 51.21 193.23
  C 54.06 196.52 59.31 202.04 63.49 196.41
  A 1.60 1.42 65.9 0 0 63.78 195.50
  Q 63.75 180.85 63.74 166.19
  C 63.73 162.18 60.61 159.57 56.97 162.20
  Q 55.50 163.26 55.50 165.00
  L 55.51 185.76
  Q 55.51 186.55 55.03 185.96
  Q 46.83 175.88 38.71 166.16
  C 36.62 163.66 35.19 161.66 31.79 161.22
  C 28.07 160.74 26.49 163.05 26.50 166.59
  Q 26.53 179.98 26.47 193.44
  C 26.45 198.31 30.40 200.76 34.12 196.56
  A 1.30 1.22 67.5 0 0 34.43 195.75
  L 34.74 173.94
  Q 34.76 172.92 35.43 173.80"
/>
</g>
<path fill="transparent" d="
  M 0.00 0.00
  L 13.81 0.00
  Q 2.05 1.96 0.00 13.69
  L 0.00 0.00
  Z"
/>
<path fill="#30964c" d="
  M 13.81 0.00
  L 211.31 0.00
  Q 222.89 2.03 225.00 13.56
  L 225.00 211.56
  Q 222.74 223.25 210.94 225.00
  L 13.44 225.00
  Q 1.91 222.77 0.00 211.19
  L 0.00 13.69
  Q 2.05 1.96 13.81 0.00
  Z
  M 81.30 37.35
  L 66.79 62.75
  Q 65.61 62.20 64.93 63.44
  Q 58.45 75.19 51.94 86.94
  Q 51.00 88.63 50.40 91.33
  A 1.44 1.25 -56.6 0 0 50.52 92.24
  L 80.31 146.44
  A 1.63 1.18 78.8 0 0 81.05 147.13
  Q 81.83 147.40 82.26 147.17
  L 145.43 147.01
  A 1.14 1.12 14.3 0 0 146.42 146.43
  L 178.39 88.41
  A 0.30 0.27 12.7 0 0 178.10 88.01
  Q 143.12 87.98 109.31 88.03
  C 95.92 88.05 89.86 105.23 104.84 109.90
  Q 107.53 110.74 114.76 110.74
  Q 127.84 110.74 140.97 110.79
  A 0.33 0.33 15.0 0 1 141.26 111.29
  L 132.68 126.38
  A 1.41 1.23 13.1 0 1 131.51 127.00
  Q 114.37 127.00 97.25 127.00
  Q 96.43 127.00 96.25 126.04
  L 97.25 125.65
  A 0.42 0.38 58.8 0 0 97.37 125.03
  Q 95.59 122.80 94.22 120.29
  Q 86.95 107.02 79.15 93.90
  A 2.40 2.25 45.3 0 1 79.09 91.59
  L 96.08 61.40
  A 1.08 0.44 -6.3 0 1 96.78 61.02
  Q 97.63 60.82 96.32 59.50
  Q 115.40 60.31 133.44 60.02
  A 1.07 0.72 67.6 0 1 134.21 60.53
  L 145.37 78.15
  A 1.02 0.86 -13.6 0 0 146.19 78.56
  L 171.92 78.22
  C 174.09 77.79 171.55 75.95 171.17 75.32
  Q 160.57 57.19 148.11 37.89
  Q 147.06 36.26 145.12 36.26
  Q 115.05 36.21 83.44 36.36
  Q 81.00 36.37 81.30 37.35
  Z
  M 134.29 165.75
  Q 134.37 163.71 132.96 162.25
  C 131.11 158.86 127.28 160.73 125.51 163.09
  A 1.77 1.53 67.4 0 0 125.21 164.00
  Q 124.84 178.17 125.03 192.33
  C 125.15 201.66 133.44 201.47 138.15 195.63
  Q 145.45 186.58 153.03 177.76
  Q 153.72 176.96 153.79 178.01
  Q 154.33 185.79 154.26 193.82
  C 154.19 201.58 164.30 201.46 164.48 193.89
  Q 164.74 182.95 164.50 172.05
  C 164.41 167.89 166.32 163.54 161.27 160.90
  C 158.57 159.48 154.93 160.78 152.93 162.67
  Q 150.92 164.58 141.80 176.12
  C 139.95 178.46 138.89 180.05 136.17 182.06
  Q 135.69 182.41 135.68 181.75
  L 135.30 166.06
  A 1.16 0.52 -84.7 0 0 135.01 165.22
  Q 134.51 164.86 134.29 165.75
  Z
  M 26.21 197.50
  Q 29.46 201.60 33.55 198.55
  Q 35.78 196.89 35.72 194.57
  Q 35.54 187.34 35.47 178.76
  C 35.46 177.22 36.82 177.32 37.61 178.32
  Q 43.90 186.26 50.45 193.98
  C 52.13 195.97 53.63 198.08 55.98 199.02
  C 60.28 200.75 64.44 198.62 64.48 193.82
  Q 64.53 188.03 64.49 182.24
  Q 64.48 181.79 64.73 181.31
  C 65.73 179.34 64.74 177.29 64.74 175.81
  C 64.75 171.16 66.26 164.45 62.03 161.32
  C 58.73 158.89 54.80 161.89 54.78 165.50
  Q 54.74 173.72 54.41 181.93
  Q 54.32 184.19 52.81 182.43
  Q 49.14 178.15 45.87 173.54
  C 44.95 172.25 43.56 171.42 42.61 170.05
  C 39.11 164.99 33.02 155.59 26.00 163.12
  A 1.39 0.53 -40.1 0 0 25.55 163.93
  L 25.27 194.50
  Q 25.25 196.29 26.21 197.50
  Z
  M 77.54 198.00
  L 78.25 198.54
  C 78.67 199.73 96.42 199.25 98.76 199.24
  A 1.43 1.43 -73.9 0 0 99.97 198.57
  Q 105.48 189.62 109.81 179.32
  Q 105.60 178.04 101.75 178.46
  Q 102.70 178.27 102.50 177.62
  A 0.74 0.63 -11.1 0 0 101.75 177.20
  Q 94.41 177.91 87.07 177.57
  Q 84.43 177.44 82.82 179.85
  Q 80.47 183.34 84.03 185.77
  A 0.88 0.01 34.5 0 0 84.75 186.25
  L 94.99 186.25
  A 1.21 0.94 7.3 0 1 96.24 187.51
  Q 95.52 189.52 94.11 190.82
  A 1.31 0.18 1.2 0 1 93.01 190.95
  L 83.50 190.90
  A 1.87 1.57 -11.6 0 1 81.95 190.06
  L 76.77 180.52
  A 1.11 0.95 48.9 0 1 76.76 179.47
  L 82.71 169.75
  A 1.32 0.57 -4.4 0 1 83.57 169.30
  L 88.25 168.29
  L 94.43 168.23
  A 0.93 0.51 66.0 0 1 95.05 168.70
  L 98.84 174.88
  A 1.10 0.69 -12.3 0 0 99.76 175.21
  L 107.30 174.66
  C 107.75 172.77 101.95 164.14 100.73 162.02
  Q 99.77 160.36 97.76 160.36
  L 78.74 160.45
  Q 76.87 160.46 75.94 162.19
  L 66.74 179.22
  A 1.09 0.90 -48.2 0 0 66.70 180.18
  C 67.85 182.28 76.18 198.41 77.54 198.00
  Z
  M 168.20 191.84
  C 166.48 197.01 171.17 201.07 175.37 196.90
  Q 180.69 191.59 185.41 186.41
  A 1.02 0.96 43.6 0 1 186.83 186.42
  L 198.77 198.23
  A 2.08 2.03 -33.8 0 0 201.03 198.65
  C 207.13 196.03 204.16 192.24 200.94 189.06
  Q 196.60 184.78 192.28 180.34
  A 0.50 0.50 45.6 0 1 192.29 179.63
  Q 197.84 174.14 203.23 168.46
  C 206.92 164.58 201.96 158.23 197.08 163.11
  Q 191.96 168.23 186.56 173.51
  A 0.55 0.53 -46.6 0 1 185.83 173.54
  Q 180.08 168.54 175.20 162.45
  Q 172.38 158.30 168.29 162.07
  Q 164.70 165.39 167.83 168.63
  Q 172.75 173.72 177.40 178.37
  Q 179.17 180.14 177.24 181.73
  Q 171.92 186.10 168.20 191.84
  Z
  M 118.33 161.69
  C 111.39 159.26 113.27 170.76 113.17 174.14
  A 0.81 0.42 -88.4 0 0 113.57 174.97
  L 119.75 174.99
  A 0.74 0.49 -89.6 0 0 120.25 174.25
  L 120.23 164.26
  Q 120.23 162.36 118.33 161.69
  Z
  M 113.82 178.57
  A 0.68 0.56 -89.6 0 0 113.25 179.25
  L 113.25 195.75
  A 1.52 0.67 -80.4 0 0 113.50 196.74
  Q 116.88 200.64 120.06 196.54
  A 1.51 0.42 85.3 0 0 120.26 195.50
  L 120.25 179.50
  A 0.79 0.52 -89.3 0 0 119.75 178.72
  L 113.82 178.57
  Z"
/>
<path fill="transparent" d="
  M 211.31 0.00
  L 225.00 0.00
  L 225.00 13.56
  Q 222.89 2.03 211.31 0.00
  Z"
/>
<path fill="#128a35" d="
  M 171.92 78.22
  L 147.08 37.86
  A 0.92 0.88 -15.3 0 0 146.31 37.44
  L 81.30 37.35
  Q 81.00 36.37 83.44 36.36
  Q 115.05 36.21 145.12 36.26
  Q 147.06 36.26 148.11 37.89
  Q 160.57 57.19 171.17 75.32
  C 171.55 75.95 174.09 77.79 171.92 78.22
  Z"
/>
<path fill="#ffffff" d="
  M 171.92 78.22
  L 146.19 78.56
  A 1.02 0.86 -13.6 0 1 145.37 78.15
  L 134.21 60.53
  A 1.07 0.72 67.6 0 0 133.44 60.02
  Q 115.40 60.31 96.32 59.50
  Q 86.34 75.47 77.48 92.06
  A 0.93 0.91 44.3 0 0 77.50 92.94
  L 96.25 126.04
  Q 96.43 127.00 97.25 127.00
  Q 114.37 127.00 131.51 127.00
  A 1.41 1.23 13.1 0 0 132.68 126.38
  L 141.26 111.29
  A 0.33 0.33 15.0 0 0 140.97 110.79
  Q 127.84 110.74 114.76 110.74
  Q 107.53 110.74 104.84 109.90
  C 89.86 105.23 95.92 88.05 109.31 88.03
  Q 143.12 87.98 178.10 88.01
  A 0.30 0.27 12.7 0 1 178.39 88.41
  L 146.42 146.43
  A 1.14 1.12 14.3 0 1 145.43 147.01
  L 82.26 147.17
  L 51.28 91.41
  A 0.92 0.92 -90.0 0 1 51.28 90.53
  L 66.79 62.75
  L 81.30 37.35
  L 146.31 37.44
  A 0.92 0.88 -15.3 0 1 147.08 37.86
  L 171.92 78.22
  Z"
/>
<path fill="#128a35" d="
  M 96.32 59.50
  Q 97.63 60.82 96.78 61.02
  A 1.08 0.44 -6.3 0 0 96.08 61.40
  L 79.09 91.59
  A 2.40 2.25 45.3 0 0 79.15 93.90
  Q 86.95 107.02 94.22 120.29
  Q 95.59 122.80 97.37 125.03
  A 0.42 0.38 58.8 0 1 97.25 125.65
  L 96.25 126.04
  L 77.50 92.94
  A 0.93 0.91 44.3 0 1 77.48 92.06
  Q 86.34 75.47 96.32 59.50
  Z"
/>
<path fill="#18923c" d="
  M 66.79 62.75
  L 51.28 90.53
  A 0.92 0.92 90.0 0 0 51.28 91.41
  L 82.26 147.17
  Q 81.83 147.40 81.05 147.13
  A 1.63 1.18 78.8 0 1 80.31 146.44
  L 50.52 92.24
  A 1.44 1.25 -56.6 0 1 50.40 91.33
  Q 51.00 88.63 51.94 86.94
  Q 58.45 75.19 64.93 63.44
  Q 65.61 62.20 66.79 62.75
  Z"
/>
<path fill="#0b862e" d="
  M 132.96 162.25
  C 128.27 159.53 126.03 162.52 126.01 167.00
  Q 125.97 181.08 126.03 194.98
  Q 126.04 197.56 128.54 198.21
  C 132.52 199.23 134.90 197.90 137.54 194.73
  Q 146.31 184.19 154.73 173.83
  Q 155.34 173.08 155.34 174.00
  L 155.27 195.25
  A 1.81 1.15 -73.0 0 0 155.54 196.22
  Q 158.85 200.81 162.84 196.85
  A 4.12 2.64 76.1 0 0 163.74 194.20
  Q 163.77 180.30 163.73 167.24
  C 163.70 158.75 156.02 160.42 152.16 165.06
  Q 143.40 175.56 135.06 185.87
  Q 134.13 187.02 134.14 185.51
  L 134.29 165.75
  Q 134.51 164.86 135.01 165.22
  A 1.16 0.52 -84.7 0 1 135.30 166.06
  L 135.68 181.75
  Q 135.69 182.41 136.17 182.06
  C 138.89 180.05 139.95 178.46 141.80 176.12
  Q 150.92 164.58 152.93 162.67
  C 154.93 160.78 158.57 159.48 161.27 160.90
  C 166.32 163.54 164.41 167.89 164.50 172.05
  Q 164.74 182.95 164.48 193.89
  C 164.30 201.46 154.19 201.58 154.26 193.82
  Q 154.33 185.79 153.79 178.01
  Q 153.72 176.96 153.03 177.76
  Q 145.45 186.58 138.15 195.63
  C 133.44 201.47 125.15 201.66 125.03 192.33
  Q 124.84 178.17 125.21 164.00
  A 1.77 1.53 67.4 0 1 125.51 163.09
  C 127.28 160.73 131.11 158.86 132.96 162.25
  Z"
/>
<path fill="#128a35" d="
  M 26.21 197.50
  Q 25.25 196.29 25.27 194.50
  L 25.55 163.93
  A 1.39 0.53 -40.1 0 1 26.00 163.12
  C 33.02 155.59 39.11 164.99 42.61 170.05
  C 43.56 171.42 44.95 172.25 45.87 173.54
  Q 49.14 178.15 52.81 182.43
  Q 54.32 184.19 54.41 181.93
  Q 54.74 173.72 54.78 165.50
  C 54.80 161.89 58.73 158.89 62.03 161.32
  C 66.26 164.45 64.75 171.16 64.74 175.81
  C 64.74 177.29 65.73 179.34 64.73 181.31
  Q 64.48 181.79 64.49 182.24
  Q 64.53 188.03 64.48 193.82
  C 64.44 198.62 60.28 200.75 55.98 199.02
  C 53.63 198.08 52.13 195.97 50.45 193.98
  Q 43.90 186.26 37.61 178.32
  C 36.82 177.32 35.46 177.22 35.47 178.76
  Q 35.54 187.34 35.72 194.57
  Q 35.78 196.89 33.55 198.55
  Q 29.46 201.60 26.21 197.50
  Z
  M 35.43 173.80
  Q 43.02 183.76 51.21 193.23
  C 54.06 196.52 59.31 202.04 63.49 196.41
  A 1.60 1.42 65.9 0 0 63.78 195.50
  Q 63.75 180.85 63.74 166.19
  C 63.73 162.18 60.61 159.57 56.97 162.20
  Q 55.50 163.26 55.50 165.00
  L 55.51 185.76
  Q 55.51 186.55 55.03 185.96
  Q 46.83 175.88 38.71 166.16
  C 36.62 163.66 35.19 161.66 31.79 161.22
  C 28.07 160.74 26.49 163.05 26.50 166.59
  Q 26.53 179.98 26.47 193.44
  C 26.45 198.31 30.40 200.76 34.12 196.56
  A 1.30 1.22 67.5 0 0 34.43 195.75
  L 34.74 173.94
  Q 34.76 172.92 35.43 173.80
  Z"
/>
<path fill="#128a35" d="
  M 107.30 174.66
  L 99.66 162.07
  A 1.36 1.34 -15.2 0 0 98.50 161.42
  L 78.49 161.53
  A 1.94 1.93 -76.2 0 0 76.80 162.56
  L 67.82 179.29
  A 1.06 0.83 -48.6 0 0 67.77 180.20
  L 77.54 198.00
  C 76.18 198.41 67.85 182.28 66.70 180.18
  A 1.09 0.90 -48.2 0 1 66.74 179.22
  L 75.94 162.19
  Q 76.87 160.46 78.74 160.45
  L 97.76 160.36
  Q 99.77 160.36 100.73 162.02
  C 101.95 164.14 107.75 172.77 107.30 174.66
  Z"
/>
<path fill="#128a35" d="
  M 175.20 162.45
  Q 166.08 160.01 168.47 166.65
  Q 169.28 168.89 171.77 171.37
  Q 175.86 175.47 179.95 179.64
  A 0.52 0.49 45.8 0 1 179.96 180.35
  L 168.20 191.84
  Q 171.92 186.10 177.24 181.73
  Q 179.17 180.14 177.40 178.37
  Q 172.75 173.72 167.83 168.63
  Q 164.70 165.39 168.29 162.07
  Q 172.38 158.30 175.20 162.45
  Z"
/>
<path fill="#ffffff" d="
  M 35.43 173.80
  Q 34.76 172.92 34.74 173.94
  L 34.43 195.75
  A 1.30 1.22 67.5 0 1 34.12 196.56
  C 30.40 200.76 26.45 198.31 26.47 193.44
  Q 26.53 179.98 26.50 166.59
  C 26.49 163.05 28.07 160.74 31.79 161.22
  C 35.19 161.66 36.62 163.66 38.71 166.16
  Q 46.83 175.88 55.03 185.96
  Q 55.51 186.55 55.51 185.76
  L 55.50 165.00
  Q 55.50 163.26 56.97 162.20
  C 60.61 159.57 63.73 162.18 63.74 166.19
  Q 63.75 180.85 63.78 195.50
  A 1.60 1.42 65.9 0 1 63.49 196.41
  C 59.31 202.04 54.06 196.52 51.21 193.23
  Q 43.02 183.76 35.43 173.80
  Z"
/>
<path fill="#ffffff" d="
  M 118.33 161.69
  Q 120.23 162.36 120.23 164.26
  L 120.25 174.25
  A 0.74 0.49 -89.6 0 1 119.75 174.99
  L 113.57 174.97
  A 0.81 0.42 -88.4 0 1 113.17 174.14
  C 113.27 170.76 111.39 159.26 118.33 161.69
  Z"
/>
<path fill="#ffffff" d="
  M 132.96 162.25
  Q 134.37 163.71 134.29 165.75
  L 134.14 185.51
  Q 134.13 187.02 135.06 185.87
  Q 143.40 175.56 152.16 165.06
  C 156.02 160.42 163.70 158.75 163.73 167.24
  Q 163.77 180.30 163.74 194.20
  A 4.12 2.64 76.1 0 1 162.84 196.85
  Q 158.85 200.81 155.54 196.22
  A 1.81 1.15 -73.0 0 1 155.27 195.25
  L 155.34 174.00
  Q 155.34 173.08 154.73 173.83
  Q 146.31 184.19 137.54 194.73
  C 134.90 197.90 132.52 199.23 128.54 198.21
  Q 126.04 197.56 126.03 194.98
  Q 125.97 181.08 126.01 167.00
  C 126.03 162.52 128.27 159.53 132.96 162.25
  Z"
/>
<path fill="#ffffff" d="
  M 175.20 162.45
  Q 180.08 168.54 185.83 173.54
  A 0.55 0.53 -46.6 0 0 186.56 173.51
  Q 191.96 168.23 197.08 163.11
  C 201.96 158.23 206.92 164.58 203.23 168.46
  Q 197.84 174.14 192.29 179.63
  A 0.50 0.50 45.6 0 0 192.28 180.34
  Q 196.60 184.78 200.94 189.06
  C 204.16 192.24 207.13 196.03 201.03 198.65
  A 2.08 2.03 -33.8 0 1 198.77 198.23
  L 186.83 186.42
  A 1.02 0.96 43.6 0 0 185.41 186.41
  Q 180.69 191.59 175.37 196.90
  C 171.17 201.07 166.48 197.01 168.20 191.84
  L 179.96 180.35
  A 0.52 0.49 45.8 0 0 179.95 179.64
  Q 175.86 175.47 171.77 171.37
  Q 169.28 168.89 168.47 166.65
  Q 166.08 160.01 175.20 162.45
  Z"
/>
<path fill="#ffffff" d="
  M 107.30 174.66
  L 99.76 175.21
  A 1.10 0.69 -12.3 0 1 98.84 174.88
  L 95.05 168.70
  A 0.93 0.51 66.0 0 0 94.43 168.23
  L 88.25 168.29
  L 82.67 168.37
  A 1.04 0.78 -71.6 0 0 81.89 168.91
  L 76.08 179.29
  A 1.11 0.89 -48.3 0 0 76.03 180.26
  L 82.04 191.20
  A 0.92 0.61 70.9 0 0 82.68 191.69
  L 93.75 191.74
  A 1.41 0.67 6.2 0 0 94.86 191.35
  L 98.03 186.30
  Q 98.45 185.62 97.64 185.64
  Q 88.22 185.92 86.26 185.73
  C 80.66 185.18 82.25 178.54 86.31 178.53
  Q 94.03 178.51 101.75 178.46
  Q 105.60 178.04 109.81 179.32
  Q 104.06 188.59 99.68 197.71
  A 1.44 1.40 12.3 0 1 98.39 198.51
  L 78.25 198.54
  L 77.54 198.00
  L 67.77 180.20
  A 1.06 0.83 -48.6 0 1 67.82 179.29
  L 76.80 162.56
  A 1.94 1.93 -76.2 0 1 78.49 161.53
  L 98.50 161.42
  A 1.36 1.34 -15.2 0 1 99.66 162.07
  L 107.30 174.66
  Z"
/>
<path fill="#097122" d="
  M 88.25 168.29
  L 83.57 169.30
  A 1.32 0.57 -4.4 0 0 82.71 169.75
  L 76.76 179.47
  A 1.11 0.95 48.9 0 0 76.77 180.52
  L 81.95 190.06
  A 1.87 1.57 -11.6 0 0 83.50 190.90
  L 93.01 190.95
  A 1.31 0.18 1.2 0 0 94.11 190.82
  Q 95.52 189.52 96.24 187.51
  A 1.21 0.94 7.3 0 0 94.99 186.25
  L 84.75 186.25
  A 0.88 0.01 34.5 0 1 84.03 185.77
  Q 80.47 183.34 82.82 179.85
  Q 84.43 177.44 87.07 177.57
  Q 94.41 177.91 101.75 177.20
  A 0.74 0.63 -11.1 0 1 102.50 177.62
  Q 102.70 178.27 101.75 178.46
  Q 94.03 178.51 86.31 178.53
  C 82.25 178.54 80.66 185.18 86.26 185.73
  Q 88.22 185.92 97.64 185.64
  Q 98.45 185.62 98.03 186.30
  L 94.86 191.35
  A 1.41 0.67 6.2 0 1 93.75 191.74
  L 82.68 191.69
  A 0.92 0.61 70.9 0 1 82.04 191.20
  L 76.03 180.26
  A 1.11 0.89 -48.3 0 1 76.08 179.29
  L 81.89 168.91
  A 1.04 0.78 -71.6 0 1 82.67 168.37
  L 88.25 168.29
  Z"
/>
<path fill="#ffffff" d="
  M 113.82 178.57
  L 119.75 178.72
  A 0.79 0.52 -89.3 0 1 120.25 179.50
  L 120.26 195.50
  A 1.51 0.42 85.3 0 1 120.06 196.54
  Q 116.88 200.64 113.50 196.74
  A 1.52 0.67 -80.4 0 1 113.25 195.75
  L 113.25 179.25
  A 0.68 0.56 -89.6 0 1 113.82 178.57
  Z"
/>
<path fill="#097122" d="
  M 109.81 179.32
  Q 105.48 189.62 99.97 198.57
  A 1.43 1.43 -73.9 0 1 98.76 199.24
  C 96.42 199.25 78.67 199.73 78.25 198.54
  L 98.39 198.51
  A 1.44 1.40 12.3 0 0 99.68 197.71
  Q 104.06 188.59 109.81 179.32
  Z"
/>
<path fill="transparent" d="
  M 0.00 211.19
  Q 1.91 222.77 13.44 225.00
  L 0.00 225.00
  L 0.00 211.19
  Z"
/>
<path fill="transparent" d="
  M 225.00 211.56
  L 225.00 225.00
  L 210.94 225.00
  Q 222.74 223.25 225.00 211.56
  Z"
/>
</svg>
