<svg xmlns="http://www.w3.org/2000/svg" width="736" height="293" fill="none"><g clip-path="url(#a)"><mask id="b" width="179" height="255" x="30" y="22" maskUnits="userSpaceOnUse" style="mask-type:alpha"><path fill="#D9D9D9" d="M30 149.5 208.5 22.627v253.746L30 149.5Z"/></mask><g fill="#808080" mask="url(#b)"><rect width="29.93" height="225.131" x="208.869" y="134.413" fill-opacity=".5" rx="5" transform="rotate(90 208.869 134.413)"/><rect width="14" height="201" x="190.457" y="111.45" fill-opacity=".2" rx="5" transform="rotate(90 190.457 111.45)"/><rect width="14" height="201" x="190.581" y="173.591" fill-opacity=".2" rx="5" transform="rotate(90 190.581 173.591)"/></g><path fill="#f00" fill-rule="evenodd" d="M326 9.941a4.444 4.444 0 0 0-2.607-.535l-81.041 8.196a4.46 4.46 0 0 0-2.727 1.31 4.36 4.36 0 0 0-.773 1.068 4.449 4.449 0 0 0 .063 4.228l35.627 63.58 13.38-1.053a99.993 99.993 0 0 1 14.721-.072l12.891.889-12.593 2.894a100.014 100.014 0 0 1-14.551 2.232l-14.355 1.13c-9.98 10.159-16.257 21.696-18.482 34.276l-35.774.367c-3.942.189-3.944 3.001-3.919 7.02l.281 27.992c-.078 3.979-.01 6.558 3.974 6.484l38.74-.358c2.808 5.927 10.577 19.083 28.805 32.39l16.924 2.228a99.898 99.898 0 0 1 14.213 2.933l12.814 3.631-13.317.191a99.978 99.978 0 0 1-14.488-.845l-13.973-1.839-30.327 66.684a4.434 4.434 0 0 0 .293 4.221 4.437 4.437 0 0 0 3.693 2.067l81.439 1.27c.95.014 1.87-.268 2.653-.818l61.294-43.512c21.234 1.343 44.199 1.195 68.291-.427 138.713-9.351 205.471-57.612 232.918-85.542 8.881-9.037 12.766-15.146 13.054-15.598l.012-.018a4.457 4.457 0 0 0-.171-4.954c-2.724-3.786-68.995-92.6-270.619-90.766h-.028c-1.019.028-27.329.74-59.849 5.825L326 9.94Zm164.607 83.86c32.767-.286 59.501 19.58 59.718 44.376.216 24.797-26.167 45.127-58.934 45.413-32.768.285-59.502-19.581-59.719-44.378-.216-24.796 26.167-45.125 58.935-45.411Z" clip-rule="evenodd"/></g><defs><clipPath id="a"><path fill="#f00" d="M0 0h736v293H0z"/></clipPath></defs></svg>