<svg xmlns="http://www.w3.org/2000/svg" version="1.0" width="512.000000pt" height="512.000000pt" viewBox="0 0 512.000000 512.000000" preserveAspectRatio="xMidYMid meet"><g transform="translate(0.000000,512.000000) scale(0.100000,-0.100000)" fill="gray" stroke="none"><path d="M2512 5052 c-15 -16 -53 -69 -84 -120 -81 -131 -84 -131 -212 -3 -84 84 -106 101 -132 101 -17 0 -38 -8 -46 -17 -8 -10 -35 -70 -58 -133 -23 -63 -45 -118 -49 -121 -3 -4 -18 -9 -32 -13 -22 -5 -45 7 -132 69 -84 59 -114 75 -141 75 -49 0 -60 -22 -85 -169 -28 -170 -37 -174 -200 -102 -62 28 -123 51 -135 51 -13 0 -33 -11 -46 -25 -22 -23 -22 -29 -18 -160 l5 -136 -26 -18 c-25 -18 -29 -17 -155 12 -140 32 -166 30 -187 -17 -9 -20 -6 -49 19 -152 28 -120 29 -129 13 -151 -15 -21 -22 -22 -159 -23 -128 0 -144 -2 -162 -20 -30 -30 -25 -60 30 -180 55 -121 55 -119 39 -154 -10 -22 -22 -26 -123 -41 -144 -21 -170 -30 -185 -61 -16 -37 -8 -56 76 -171 60 -83 72 -107 67 -127 -8 -34 -13 -37 -146 -85 -64 -24 -123 -49 -129 -57 -7 -8 -12 -29 -12 -47 0 -27 14 -45 102 -127 94 -89 101 -98 95 -126 -5 -25 -21 -39 -86 -79 -142 -87 -158 -101 -158 -140 0 -39 16 -53 158 -140 65 -40 81 -54 86 -79 6 -28 -1 -37 -95 -126 -88 -82 -102 -100 -102 -127 0 -18 5 -39 12 -47 6 -8 65 -33 129 -57 133 -48 138 -51 146 -85 5 -20 -8 -45 -74 -135 -44 -61 -80 -117 -80 -125 0 -30 25 -64 54 -73 17 -5 81 -17 142 -26 101 -15 113 -19 123 -41 16 -35 16 -33 -39 -154 -55 -120 -60 -150 -30 -180 18 -18 34 -20 163 -20 136 -1 143 -2 158 -23 16 -21 15 -31 -14 -155 l-31 -132 20 -27 c12 -16 32 -29 45 -31 13 -1 78 11 144 27 117 28 121 28 146 10 l26 -18 -5 -136 c-4 -131 -4 -137 18 -160 13 -14 34 -25 47 -25 13 0 74 23 135 51 162 72 171 68 199 -102 24 -147 35 -169 85 -169 29 0 58 15 142 75 86 61 110 74 131 69 14 -4 29 -9 32 -13 4 -3 26 -58 49 -121 23 -63 50 -123 58 -132 9 -10 29 -18 48 -18 28 0 46 14 131 101 96 97 101 101 129 92 22 -7 45 -35 91 -109 67 -107 93 -134 127 -134 33 1 48 17 120 132 95 151 98 151 223 19 83 -89 99 -101 128 -101 45 0 62 24 109 151 44 119 48 125 82 133 20 5 44 -7 130 -69 80 -58 112 -75 137 -75 53 0 64 22 88 166 12 71 27 132 33 137 32 21 58 16 165 -32 123 -56 148 -60 181 -33 22 18 23 24 21 158 -2 134 -1 140 21 161 l23 21 127 -30 c140 -33 172 -32 190 8 12 26 10 40 -35 246 -9 41 -8 50 8 68 17 18 30 20 160 20 123 0 144 2 157 18 32 36 29 53 -28 180 -54 120 -56 127 -41 151 14 24 28 28 149 49 202 34 210 55 89 224 -73 101 -78 112 -69 138 8 24 23 34 81 56 166 62 181 69 196 95 23 41 7 68 -93 159 -84 76 -94 89 -95 120 0 34 3 37 114 104 177 108 177 134 -1 242 -110 67 -113 70 -113 104 1 31 11 44 95 120 100 91 116 118 93 159 -15 26 -30 33 -196 95 -58 22 -73 32 -81 56 -9 26 -4 37 69 138 121 169 113 190 -89 224 -121 21 -135 25 -149 49 -15 25 -14 31 36 139 88 193 78 210 -126 210 -194 0 -190 -6 -143 196 26 111 23 144 -15 164 -23 12 -41 10 -158 -17 -182 -42 -176 -47 -177 149 0 146 0 148 -25 164 -33 22 -59 16 -187 -41 -97 -44 -109 -47 -136 -36 -28 12 -30 16 -51 144 -13 80 -28 138 -38 149 -32 36 -73 23 -187 -57 -85 -61 -111 -74 -131 -69 -33 8 -36 13 -84 139 -49 127 -62 145 -107 145 -28 0 -45 -13 -127 -101 -125 -132 -129 -132 -223 19 -37 59 -74 112 -83 119 -27 20 -61 15 -89 -15z m108 -430 c111 -55 106 -214 -8 -264 -71 -32 -152 -5 -187 62 -23 44 -19 122 7 155 49 63 121 81 188 47z m-274 -357 c189 -201 205 -201 413 -4 88 85 143 129 157 129 12 0 65 -11 118 -25 421 -109 804 -385 1055 -758 28 -42 54 -83 57 -91 3 -8 -35 -107 -85 -219 -138 -310 -138 -310 139 -433 l185 -82 3 -156 3 -156 -95 0 c-122 0 -126 -4 -126 -114 0 -92 -11 -135 -47 -184 -40 -54 -95 -77 -188 -77 -69 0 -86 4 -125 27 -54 31 -61 45 -89 162 -37 160 -93 256 -205 348 -34 28 -62 54 -64 57 -1 4 12 15 28 25 63 37 177 136 221 192 110 140 142 275 103 428 -25 98 -71 173 -160 262 -69 70 -96 89 -185 132 -191 93 -90 86 -1243 92 l-1019 5 90 85 c235 224 491 369 803 455 135 37 123 42 256 -100z m-1487 -992 c67 -51 86 -117 52 -186 -24 -49 -80 -87 -130 -87 -77 0 -151 74 -151 151 0 111 142 186 229 122z m3542 -5 c131 -73 80 -270 -70 -272 -87 -2 -156 72 -148 157 10 112 121 170 218 115z m-3081 -583 l0 -585 -259 0 -259 0 -11 33 c-47 149 -75 469 -55 619 l6 46 176 78 c147 66 180 85 199 113 32 47 29 89 -12 184 -19 44 -35 84 -35 89 0 4 56 8 125 8 l125 0 0 -585z m1557 536 c115 -55 148 -152 78 -230 -65 -71 -85 -75 -467 -79 l-338 -3 0 170 0 171 333 0 332 0 62 -29z m-135 -834 c110 -54 151 -127 198 -352 58 -281 82 -342 168 -429 88 -89 67 -86 522 -86 220 0 400 -4 400 -8 0 -4 -36 -49 -81 -100 -56 -65 -85 -91 -97 -88 -59 17 -309 66 -335 66 -38 0 -91 -30 -107 -60 -6 -12 -29 -103 -51 -203 -26 -117 -45 -186 -56 -194 -24 -18 -177 -72 -280 -98 -149 -39 -287 -55 -464 -55 -246 0 -452 38 -666 122 -57 22 -103 40 -103 42 0 28 -84 376 -95 393 -20 30 -73 63 -102 63 -12 0 -94 -16 -183 -35 -89 -19 -163 -35 -165 -35 -2 0 -38 42 -81 93 l-78 92 762 3 762 2 0 280 0 280 -230 0 -230 0 0 171 0 170 268 -3 267 -3 57 -28z m-1218 -1200 c45 -26 76 -77 76 -127 0 -73 -72 -149 -142 -150 -127 -1 -201 146 -121 241 51 60 121 74 187 36z m2195 -2 c54 -27 81 -71 81 -128 0 -91 -58 -150 -146 -150 -80 0 -144 63 -144 144 0 109 115 183 209 134z"/></g></svg>